# xmcd
#
# Track frame offsets:
#	150
#	15855
#	28044
#	41680
#	55380
#	69015
#	82710
#	95767
#	109200
#	124767
#	139962
#
# Disc length: 2057 seconds
#
# Revision: 1
# Processed by: cddbd v1.5.2PL0 Copyright (c) Steve Scherf et al.
# Submitted via: audiograbber 1.83.01
#
DISCID=8808070b
DTITLE=REGINALDO ROSSI - CHEIO DE AMOR
DYEAR=1900
DGENRE=BREGA
TTITLE0=CHEIO DE AMOR
TTITLE1=MEU FRACASSO
TTITLE2=PENSANDO NELA
TTITLE3=QUANDO VOCÊ FOI EMBORA
TTITLE4=SUA ASÊNCIA
TTITLE5=É DIVINO SER MULHER
TTITLE6=UM MILHÃO DE VEZES
TTITLE7=POR NOSSOS FILHOS
TTITLE8=UM OLHAR, UM ALGUÉM UM LUGAR
TTITLE9=EM PLENA LUA DE MEL
TTITLE10=NO FIM DO BAILE
EXTD=
EXTT0=
EXTT1=
EXTT2=
EXTT3=
EXTT4=
EXTT5=
EXTT6=
EXTT7=
EXTT8=
EXTT9=
EXTT10=
PLAYORDER=
